<svg width="80" height="80" viewBox="0 0 80 80" fill="none" xmlns="http://www.w3.org/2000/svg">
<circle cx="40" cy="40" r="40" fill="#0F172A"/>
<path fill-rule="evenodd" clip-rule="evenodd" d="M54 26.8857C52.6978 30.9132 49.257 33.8774 45.0812 34.5691L43.9208 34.7614V54.0805C43.9208 59.2333 47.2572 59.1521 53.7728 58.8296V66.6389C40.5822 68.249 35.3387 64.5462 35.3387 54.0805V34.7614H25V31.7333C25 29.0946 27.2063 26.9919 29.842 27.1187L35.3387 27.3831V15.5775L43.9208 13V26.8857H54Z" fill="#F8FAFC"/>
<path d="M25 31.0005C26.2888 25.7502 29.5112 23.125 34.6664 23.125C39.4575 23.125 41.6518 25.3927 43.5474 27.3518L43.5479 27.3523C44.7109 28.5547 45.7626 29.6414 47.2332 30.0163C49.8108 30.6722 52.0664 29.6879 54 27.0628C52.7112 32.3131 49.4888 34.9375 44.3336 34.9375C39.5417 34.9375 37.3482 32.6706 35.4526 30.7115L35.4521 30.711C34.2891 29.5078 33.2374 28.4211 31.766 28.047C29.1892 27.3911 26.9336 28.3753 25 31.0005Z" fill="#38BDF8"/>
</svg>
